PathFileType	4	(X/Y/Z)	/Users/itak/Documents/Research/Walk-IL/dataset/trc/00196_00008.trc
DataRate	CameraRate	NumFrames	NumMarkers	Units	OrigDataRate	OrigDataStartFrame	OrigNumFrames
100.000000	100.000000	4	53	mm	100.000000	206	826
Frame#	Time	RPSI			LPSI			L3			STRN			T10			C7			CLAV			RBAK			LBAK			LSHO			LUPA			LAEL			LAOL			LWTS			LWPS			LFRA			LIFD			LHPS			LHTS			RSHO			RUPA			RAEL			RAOL			RWTS			RWPS			RFRA			RIFD			RHTS			RHPS			RBHD			LFHD			RFHD			LBHD			LHIP			RHIP			RASI			LASI			LKNE			LTHI			LANK			LTIP			LTOE			LMT1			LMT5			LHEE			RKNE			RTHI			RANK			RTIP			RTOE			RMT1			RMT5			RHEE			
		X1	Y1	Z1	X2	Y2	Z2	X3	Y3	Z3	X4	Y4	Z4	X5	Y5	Z5	X6	Y6	Z6	X7	Y7	Z7	X8	Y8	Z8	X9	Y9	Z9	X10	Y10	Z10	X11	Y11	Z11	X12	Y12	Z12	X13	Y13	Z13	X14	Y14	Z14	X15	Y15	Z15	X16	Y16	Z16	X17	Y17	Z17	X18	Y18	Z18	X19	Y19	Z19	X20	Y20	Z20	X21	Y21	Z21	X22	Y22	Z22	X23	Y23	Z23	X24	Y24	Z24	X25	Y25	Z25	X26	Y26	Z26	X27	Y27	Z27	X28	Y28	Z28	X29	Y29	Z29	X30	Y30	Z30	X31	Y31	Z31	X32	Y32	Z32	X33	Y33	Z33	X34	Y34	Z34	X35	Y35	Z35	X36	Y36	Z36	X37	Y37	Z37	X38	Y38	Z38	X39	Y39	Z39	X40	Y40	Z40	X41	Y41	Z41	X42	Y42	Z42	X43	Y43	Z43	X44	Y44	Z44	X45	Y45	Z45	X46	Y46	Z46	X47	Y47	Z47	X48	Y48	Z48	X49	Y49	Z49	X50	Y50	Z50	X51	Y51	Z51	X52	Y52	Z52	X53	Y53	Z53	

207	2.06	55.67107391357422	1015.747192382812	853.5105590820312	19.67480659484863	1026.335327148438	971.3941040039062	36.59375381469727	1059.720092773438	909.4745483398438	-225.4837341308594	1250.383056640625	819.1546020507812	59.97189331054688	1222.645751953125	920.0357055664062	-25.88125228881836	1484.611938476562	887.9157104492188	-208.7801818847656	1366.650634765625	826.3894653320312	84.67060089111328	1310.816040039062	821.6793212890625	-50.44235610961914	1467.776000976562	987.2167358398438	-147.9951934814453	1453.388061523438	1036.18798828125	-132.7782287597656	1330.251220703125	1129.225952148438	-144.6845855712891	1117.04833984375	1167.923583984375	-76.01902770996094	1096.225341796875	1115.77587890625	-239.6568145751953	879.4830322265625	1131.176391601562	-173.9317321777344	865.6126098632812	1193.596069335938	-162.5368957519531	1007.946472167969	1189.06201171875	-246.1682891845703	691.7581176757812	1123.625854492188	-191.6926727294922	795.9835815429688	1190.849975585938	-255.9344329833984	802.6494140625	1155.368896484375	-23.7774658203125	1447.365844726562	697.9060668945312	25.37994956970215	1379.464111328125	648.6106567382812	91.95410919189453	1094.054321289062	640.7059326171875	48.18363952636719	1090.860229492188	729.4400024414062	-19.95425224304199	853.99658203125	605.456787109375	69.16222381591797	842.81298828125	610.407470703125	84.47829437255859	1018.928527832031	619.8056640625	-28.88563346862793	665.8499755859375	647.1199340820312	-30.1575984954834	754.095703125	596.7222290039062	51.59365081787109	757.537841796875	610.4677124023438	-64.716796875	1631.617309570312	786.62060546875	-277.833984375	1664.095581054688	801.7427368164062	-210.3471527099609	1645.898803710938	691.82763671875	-130.7687683105469	1658.97265625	902.974853515625	-104.2813873291016	971.0939331054688	1064.716918945312	-61.73310852050781	969.05712890625	698.2366943359375	-155.8579711914062	992.190673828125	728.2178344726562	-216.5051574707031	996.2379760742188	980.8641967773438	-11.29631233215332	497.2711486816406	1095.97998046875	-53.99043273925781	637.2498168945312	1094.782104492188	287.274658203125	117.8793029785156	1186.315673828125	127.22900390625	316.1860961914062	1150.868530273438	106.354133605957	42.60490036010742	1134.17626953125	149.5205993652344	48.92862319946289	1092.561767578125	195.7491149902344	49.38956069946289	1210.123413085938	337.0390319824219	153.2005920410156	1123.487060546875	-245.2026519775391	512.9235229492188	662.2009887695312	-161.5780792236328	770.1310424804688	659.0015869140625	-316.280029296875	32.75431060791016	683.28515625	-295.5657958984375	400.7972412109375	659.4241333007812	-496.596923828125	77.59597778320312	567.2311401367188	-490.590087890625	63.05520629882812	632.9217529296875	-378.2213745117188	41.79598617553711	586.5390014648438	-321.1004943847656	32.96775817871094	767.1129150390625	
208	2.07	46.55586242675781	1018.138671875	846.545654296875	9.850589752197266	1028.689208984375	964.1347045898438	27.57845306396484	1062.103759765625	902.3226928710938	-233.7502288818359	1253.200073242188	810.1455688476562	51.09016799926758	1224.426513671875	912.4251098632812	-33.48529815673828	1486.682250976562	879.5698852539062	-216.6157836914062	1369.394409179688	817.4237670898438	76.57481384277344	1312.55224609375	813.8583984375	-58.53808212280273	1470.087036132812	978.7340698242188	-156.3518676757812	1456.174560546875	1027.3291015625	-141.6464080810547	1333.03271484375	1120.419189453125	-153.2225189208984	1119.90283203125	1158.883056640625	-84.77714538574219	1099.106811523438	1106.576904296875	-248.3366851806641	882.4102172851562	1122.270385742188	-182.6230316162109	868.4671630859375	1184.561401367188	-171.1538696289062	1010.827026367188	1180.04931640625	-255.1381072998047	694.4259033203125	1114.580444335938	-200.4968719482422	798.863037109375	1181.831176757812	-264.770751953125	805.3780517578125	1146.595581054688	-30.91965484619141	1449.452270507812	689.59619140625	18.08817481994629	1381.39501953125	640.3587646484375	84.06504821777344	1095.927856445312	632.5386962890625	40.42092132568359	1093.011840820312	721.371337890625	-28.30738639831543	855.8621215820312	598.3505249023438	60.75933837890625	844.5977172851562	602.9353637695312	76.33194732666016	1020.745056152344	611.8419799804688	-37.4221076965332	667.8903198242188	640.7039184570312	-38.87673568725586	755.9024047851562	590.0084838867188	43.0553092956543	759.2864990234375	603.4144897460938	-71.59864807128906	1633.66943359375	777.8751831054688	-284.5707092285156	1666.936279296875	792.2774658203125	-216.8461303710938	1648.399047851562	682.6307373046875	-137.91015625	1661.388061523438	894.0515747070312	-114.6120758056641	973.4734497070312	1056.76171875	-70.27440643310547	971.54833984375	690.5478515625	-164.3728485107422	994.8341064453125	720.1559448242188	-226.326416015625	998.5894775390625	972.26708984375	-24.97797584533691	498.7722473144531	1092.005004882812	-66.56167602539062	639.0872192382812	1089.154541015625	280.8351745605469	124.9946136474609	1184.8564453125	116.3746871948242	319.9404907226562	1148.248168945312	106.7990036010742	42.60775375366211	1134.289794921875	147.3124542236328	48.71575927734375	1091.773681640625	192.9413299560547	51.79022216796875	1209.6318359375	328.267333984375	162.6503448486328	1122.070556640625	-252.5687713623047	513.6766967773438	656.3427734375	-168.9271392822266	771.4632568359375	650.2684326171875	-317.1194152832031	33.09543228149414	682.817626953125	-301.3866577148438	400.7411193847656	654.9099731445312	-499.1846313476562	74.22959899902344	567.5432739257812	-492.5684509277344	60.31085586547852	633.0662231445312	-379.8185424804688	41.51841735839844	586.1802368164062	-321.6414794921875	33.8906364440918	766.6661987304688	
209	2.08	37.53910064697266	1020.408569335938	839.6052856445312	-0.002837770385667682	1030.96240234375	956.9434814453125	18.51046752929688	1064.341064453125	895.1975708007812	-241.8495025634766	1256.150634765625	801.1052856445312	42.22100448608398	1226.281616210938	904.9100952148438	-40.97880935668945	1488.83349609375	871.3318481445312	-224.2962646484375	1372.393676757812	808.3764038085938	68.55864715576172	1314.341552734375	806.2056884765625	-66.60649871826172	1472.493286132812	970.3346557617188	-164.5766448974609	1459.246704101562	1018.588745117188	-150.6284484863281	1335.9814453125	1111.64599609375	-161.8096160888672	1122.878173828125	1149.686889648438	-93.60800170898438	1102.029907226562	1097.19921875	-257.0809631347656	885.4008178710938	1113.207397460938	-191.229736328125	871.3885498046875	1175.361083984375	-179.775390625	1013.780456542969	1170.8564453125	-263.9632568359375	697.2646484375	1105.117065429688	-209.2378234863281	801.77734375	1172.612182617188	-273.4339599609375	808.2225952148438	1137.437133789062	-37.80618286132812	1451.6611328125	681.4015502929688	11.04840660095215	1383.46435546875	632.2569580078125	76.24732208251953	1097.911987304688	624.2379150390625	33.04163360595703	1095.223999023438	713.267578125	-36.93133544921875	857.9857177734375	591.1226806640625	52.12639999389648	846.5530395507812	595.1046752929688	68.15976715087891	1022.694458007812	603.6832885742188	-46.19705200195312	670.16015625	634.3158569335938	-47.79278182983398	757.9274291992188	583.436279296875	34.19843292236328	761.2178344726562	596.028076171875	-78.46905517578125	1635.83544921875	769.083984375	-291.3426208496094	1669.864990234375	782.8049926757812	-223.3216857910156	1650.9052734375	673.4127807617188	-145.012939453125	1663.917602539062	885.0508422851562	-125.1073989868164	975.8294067382812	1048.7294921875	-78.43939208984375	974.0431518554688	682.7971801757812	-172.6268005371094	997.678466796875	711.8106079101562	-236.1389007568359	1001.003479003906	963.3504638671875	-39.50429916381836	500.14501953125	1087.930908203125	-79.52737426757812	640.7694702148438	1083.376342773438	273.6101989746094	132.4851989746094	1183.234252929688	104.4742965698242	323.4644470214844	1145.385009765625	107.2315979003906	42.60518646240234	1134.42822265625	145.2789916992188	48.17774200439453	1091.1533203125	189.5193481445312	54.42931747436523	1208.888793945312	318.6168823242188	172.3190002441406	1120.598754882812	-259.357666015625	514.30712890625	650.8450927734375	-176.2640228271484	773.0383911132812	641.3035888671875	-317.6683044433594	33.4717903137207	682.4775390625	-307.1734924316406	400.676025390625	650.6617431640625	-500.5377807617188	70.87677001953125	567.4073486328125	-493.8844909667969	57.7712287902832	632.8434448242188	-380.4979858398438	40.9499626159668	585.8453979492188	-322.2742614746094	34.36421966552734	766.2820434570312	
210	2.09	28.5966682434082	1022.600830078125	832.6375732421875	-9.626718521118164	1033.211059570312	949.8414306640625	9.47608470916748	1066.459350585938	888.0664672851562	-249.8954315185547	1259.26806640625	792.0136108398438	33.44550323486328	1228.213989257812	897.5394287109375	-48.37091445922852	1491.030029296875	863.2093505859375	-231.8807830810547	1375.450927734375	799.30126953125	60.67066192626953	1316.1484375	798.7428588867188	-74.59806823730469	1474.97021484375	962.049072265625	-172.5801086425781	1462.580322265625	1010.068237304688	-159.6588439941406	1339.044067382812	1102.9384765625	-170.4473114013672	1125.910766601562	1140.3828125	-102.3457336425781	1105.0234375	1087.715454101562	-265.8822021484375	888.4005126953125	1103.995849609375	-199.8422546386719	874.359375	1166.0146484375	-188.4137268066406	1016.796081542969	1161.537231445312	-272.6057739257812	700.2616577148438	1095.43798828125	-217.884521484375	804.6941528320312	1163.192138671875	-282.0044860839844	811.2450561523438	1127.992065429688	-44.46545028686523	1453.924438476562	673.357177734375	4.279869556427002	1385.62646484375	624.3411865234375	68.55916595458984	1099.94482421875	615.8780517578125	25.80842971801758	1097.491333007812	705.1103515625	-45.80591201782227	860.3468017578125	583.758544921875	43.28489303588867	848.6290283203125	586.953857421875	60.02353286743164	1024.72265625	595.4031982421875	-55.23446273803711	672.5819702148438	627.870361328125	-56.81088256835938	760.127685546875	577.0070190429688	25.02007675170898	763.2974853515625	588.298583984375	-85.25264739990234	1638.095947265625	760.2987670898438	-298.1580200195312	1672.894165039062	773.360595703125	-229.7328338623047	1653.375366210938	664.2059326171875	-151.9776763916016	1666.550170898438	876.029052734375	-135.6790313720703	978.1336059570312	1040.665161132812	-86.43070220947266	976.4898071289062	674.8378295898438	-180.5849609375	1000.538513183594	703.1975708007812	-245.8038177490234	1003.470703125	954.2968139648438	-54.77344512939453	501.2344970703125	1083.510375976562	-93.14157867431641	642.2855224609375	1077.456176757812	265.1351318359375	139.9107055664062	1180.918212890625	91.74742126464844	326.79150390625	1142.50390625	107.4279861450195	42.67733001708984	1134.425170898438	142.8796539306641	47.46643447875977	1090.34619140625	185.4750366210938	57.84540176391602	1208.0771484375	307.9739379882812	180.9299163818359	1117.96728515625	-265.7880554199219	514.889404296875	645.6284790039062	-183.6395111083984	774.64208984375	632.4387817382812	-318.0464477539062	33.90756607055664	682.2320556640625	-313.0049743652344	400.6470642089844	646.5560302734375	-501.4670104980469	67.48816680908203	567.004638671875	-494.8240051269531	55.44629287719727	632.4344482421875	-381.0058288574219	40.13832473754883	585.3668823242188	-322.8991394042969	34.72489166259766	765.8820190429688	
